:SAMPLES-PER-SECOND 30
:FULLY-SPECIFIED
:DEGREES
818
root  9.74113 39.3928 -21.6565 2.94885 62.0698 5.33281
RightUpLeg  1.53578 -8.8586 -1.69585
RightLeg  12.6732 6.00367 1.33473
RightFoot  -12.7119 -0.110025 -2.01932
RightToes  -8.3237e-009 0 -3.6325e-017
Spine  7.98225 1.80979 11.6728
Spine1  4.52467 3.20669 -2.25588
HEad  -19.7404 7.02017 -4.82846
LeftShoulder1  -0.548756 4.92873 -32.3745
LeftArm  4.36122 7.32748 -44.7118
LeftForeArm  37.6698 -11.0193 -9.50518
LeftHand  -0.0699114 7.07146 -1.92252
RightShoulder  -0.597209 -5.21931 28.0603
RightArm  26.0786 11.1863 51.291
RightForeArm  5.4312 19.3055 5.32296
RightHand  -0.270208 6.28405 -3.02332
LeftUpLeg  -19.2854 4.98202 -1.78304
LeftLeg  29.5621 0.397625 0.611133
LeftFoot  -2.15155 0.491723 -5.95681
LeftToes  -1.18267e-011 3.61711e-011 9.57411e-011
819
root  10.3963 39.3687 -20.9509 2.49414 61.7561 4.89553
RightUpLeg  3.96016 -8.63408 -1.28757
RightLeg  11.0271 6.05273 1.32322
RightFoot  -13.4343 -0.127414 -1.96884
RightToes  -8.3237e-009 0 -3.6325e-017
Spine  7.82497 2.12403 11.3353
Spine1  4.39013 3.48949 -2.80029
HEad  -20.1173 7.31494 -4.34188
LeftShoulder1  -0.464794 4.71216 -32.3176
LeftArm  -4.44512 9.94862 -44.1159
LeftForeArm  43.5105 -5.59964 -9.08378
LeftHand  -0.120156 7.95683 -3.23938
RightShoulder  -0.682523 -5.45403 28.3154
RightArm  27.635 12.8086 51.5503
RightForeArm  4.09295 21.0222 4.93581
RightHand  -0.284787 7.30524 -2.96029
LeftUpLeg  -18.6143 6.7708 -3.6357
LeftLeg  20.423 -0.83306 0.0299332
LeftFoot  -2.06139 0.52061 -6.27065
LeftToes  -1.18267e-011 3.61711e-011 9.57411e-011
820
root  11.0754 39.2785 -20.2201 1.97058 61.4647 4.37882
RightUpLeg  6.30644 -8.34213 -0.793032
RightLeg  9.70612 6.0255 1.28513
RightFoot  -14.4705 -0.169631 -2.62381
RightToes  -8.3237e-009 0 -3.6325e-017
Spine  7.42666 2.44253 10.5279
Spine1  4.66983 3.68308 -2.84813
HEad  -20.3248 7.39098 -4.25153
LeftShoulder1  -0.444575 4.66537 -32.126
LeftArm  -5.95632 12.7761 -43.2336
LeftForeArm  43.2899 -3.45414 -7.95723
LeftHand  -0.193909 8.94815 -4.46867
RightShoulder  -0.669427 -5.42258 28.1917
RightArm  28.3297 13.9937 51.9614
RightForeArm  3.25497 22.1598 4.81774
RightHand  -0.326607 8.21803 -3.15973
LeftUpLeg  -17.2715 7.71162 -4.93372
LeftLeg  11.0858 2.17475 -0.18401
LeftFoot  -1.67055 0.711706 -8.24989
LeftToes  -1.18267e-011 3.61711e-011 9.57411e-011
821
root  11.8159 39.1258 -19.4971 0.917847 61.6596 3.67649
RightUpLeg  8.99379 -8.50104 -0.579398
RightLeg  8.82989 6.06947 1.76451
RightFoot  -15.5971 -0.219679 -3.08575
RightToes  -8.3237e-009 0 -3.6325e-017
Spine  7.05213 2.49686 9.67911
Spine1  5.36375 3.62782 -2.61712
HEad  -20.8434 7.86506 -3.7996
LeftShoulder1  -0.489395 4.77373 -32.3908
LeftArm  -5.72673 15.3518 -41.4324
LeftForeArm  44.1589 -3.07167 -7.92342
LeftHand  -0.254593 9.41846 -5.57529
RightShoulder  -0.640984 -5.3669 27.6992
RightArm  28.3659 14.6187 52.459
RightForeArm  3.81651 22.8663 4.77509
RightHand  -0.340215 7.53045 -3.40914
LeftUpLeg  -15.3454 3.3337 -4.19801
LeftLeg  3.58594 12.7242 -2.21078
LeftFoot  -0.135655 0.946194 -9.63758
LeftToes  -1.18267e-011 3.61711e-011 9.57411e-011
822
root  12.5909 38.8893 -18.7523 -0.552979 62.1718 2.56661
RightUpLeg  11.5672 -8.63929 -0.172204
RightLeg  8.57558 5.97212 2.35086
RightFoot  -17.2169 -0.279753 -3.1758
RightToes  -8.3237e-009 0 -3.6325e-017
Spine  6.93899 2.42425 9.50948
Spine1  5.627 3.7109 -3.33866
HEad  -20.6516 7.76039 -3.42454
LeftShoulder1  -0.424966 4.6258 -31.7332
LeftArm  -4.84483 18.0253 -39.8618
LeftForeArm  45.3696 -3.83609 -8.37762
LeftHand  -0.263035 9.46429 -5.71789
RightShoulder  -0.67264 -5.43793 28.079
RightArm  28.5633 14.6449 52.2058
RightForeArm  4.57008 23.251 4.76385
RightHand  -0.263538 6.5866 -2.89814
LeftUpLeg  -14.3694 1.76517 -4.53187
LeftLeg  0.305325 19.4488 -3.57351
LeftFoot  0.360557 0.99434 -9.71484
LeftToes  -1.18267e-011 3.61711e-011 9.57411e-011
823
root  13.4506 38.563 -17.9618 -1.6554 63.1768 1.85905
RightUpLeg  13.8324 -9.21146 -0.100858
RightLeg  9.46831 6.09916 3.20177
RightFoot  -19.4117 -0.365044 -3.31215
RightToes  -8.3237e-009 0 -3.6325e-017
Spine  6.48672 2.49191 8.57464
Spine1  5.88642 3.69639 -3.21468
HEad  -20.2783 7.30698 -2.74374
LeftShoulder1  -0.394686 4.55586 -31.3773
LeftArm  -3.27504 19.932 -37.9593
LeftForeArm  45.9228 -4.8768 -9.12924
LeftHand  -0.268545 9.57318 -5.72705
RightShoulder  -0.734374 -5.58342 28.6618
RightArm  28.1969 13.7538 51.2965
RightForeArm  5.69427 23.2157 4.69919
RightHand  -0.236086 6.5228 -2.63856
LeftUpLeg  -13.8673 1.83326 -5.68109
LeftLeg  0.939471 21.7434 -3.66142
LeftFoot  0.446508 0.813125 -7.83654
LeftToes  -1.18267e-011 3.61711e-011 9.57411e-011
824
root  14.346 38.2915 -17.1289 -2.17444 63.8079 1.63509
RightUpLeg  15.9871 -10.332 -0.424268
RightLeg  10.3777 7.48578 3.84225
RightFoot  -20.8724 -0.391347 -3.00403
RightToes  -8.3237e-009 0 -3.6325e-017
Spine  6.00139 2.89551 7.07805
Spine1  6.15283 3.971 -2.86226
HEad  -19.629 6.42034 -1.7847
LeftShoulder1  -0.482497 4.7857 -31.5053
LeftArm  -1.95009 20.945 -35.8143
LeftForeArm  44.6377 -5.816 -9.47875
LeftHand  -0.22571 8.61558 -6.05153
RightShoulder  -0.740139 -5.60108 28.6407
RightArm  28.0189 11.899 50.5623
RightForeArm  5.55149 22.5976 4.68386
RightHand  -0.185262 6.49752 -2.14796
LeftUpLeg  -14.3375 2.55175 -6.98971
LeftLeg  5.1511 20.6314 -2.28307
LeftFoot  0.536256 0.0292227 -0.520026
LeftToes  -1.18267e-011 3.61711e-011 9.57411e-011
825
root  15.2759 38.1249 -16.3114 -1.39246 63.653 2.83821
RightUpLeg  17.7429 -13.2169 -2.37743
RightLeg  12.6494 12.1535 4.56693
RightFoot  -21.7183 -0.302804 -1.74022
RightToes  -8.3237e-009 0 -3.6325e-017
Spine  5.80542 3.50631 5.27596
Spine1  6.06908 4.66955 -3.54904
HEad  -18.4368 5.99427 -0.394579
LeftShoulder1  -0.587291 5.06267 -31.5169
LeftArm  -1.56624 21.9791 -34.0197
LeftForeArm  42.4292 -7.02162 -9.21367
LeftHand  -0.226689 8.82915 -5.69204
RightShoulder  -0.784796 -5.68617 29.3071
RightArm  28.3386 9.78844 49.7605
RightForeArm  5.17395 20.7086 5.01649
RightHand  -0.241864 6.60315 -2.68735
LeftUpLeg  -15.5737 3.30731 -8.82379
LeftLeg  10.716 19.0083 0.812666
LeftFoot  1.6054 -1.18332 10.4076
LeftToes  -1.18267e-011 3.61711e-011 9.57411e-011
826
root  16.2097 37.9123 -15.5555 1.0708 63.5363 5.8882
RightUpLeg  17.2306 -16.7663 -5.8775
RightLeg  20.2354 18.3487 7.04385
RightFoot  -22.3035 -0.147128 -0.0569139
RightToes  -8.3237e-009 0 -3.6325e-017
Spine  5.97194 4.0473 2.86134
Spine1  5.36079 5.0921 -4.25876
HEad  -17.2369 5.58089 0.637736
LeftShoulder1  -0.687909 5.30462 -32.0448
LeftArm  -1.46805 21.8409 -32.2463
LeftForeArm  40.0269 -7.47104 -9.01865
LeftHand  -0.210393 8.94063 -4.99833
RightShoulder  -0.872555 -5.86983 30.2798
RightArm  26.6754 8.12129 49.0988
RightForeArm  8.01305 16.935 6.31702
RightHand  -0.23925 6.00793 -2.76498
LeftUpLeg  -16.5435 5.84101 -11.1221
LeftLeg  16.416 16.6008 3.85341
LeftFoot  0.937332 -1.42823 13.1314
LeftToes  -1.18267e-011 3.61711e-011 9.57411e-011
827
root  17.0575 37.7971 -14.8558 4.25256 63.9754 9.55199
RightUpLeg  13.57 -15.393 -7.99384
RightLeg  31.8641 19.0893 12.1845
RightFoot  -19.7367 0.179636 4.74242
RightToes  -8.3237e-009 0 -3.6325e-017
Spine  6.21052 4.16325 0.674822
Spine1  4.9237 5.16868 -5.24891
HEad  -16.3895 5.52062 1.12751
LeftShoulder1  -0.706069 5.3394 -32.2906
LeftArm  -2.99869 20.0249 -32.1573
LeftForeArm  38.6543 -6.40965 -8.68344
LeftHand  -0.161767 9.21484 -3.20471
RightShoulder  -0.845201 -5.79034 30.344
RightArm  20.534 6.45568 49.7006
RightForeArm  15.1609 11.5223 7.90989
RightHand  -0.136587 5.2415 -1.77993
LeftUpLeg  -16.2397 6.8316 -12.9285
LeftLeg  19.4973 15.1576 5.37984
LeftFoot  -1.27454 -1.05143 11.9841
LeftToes  -1.18267e-011 3.61711e-011 9.57411e-011
